<mxfile host="65bd71144e">
    <diagram id="GAz4Ro1tZ-_NzbGvpH6E" name="Page-1">
        <mxGraphModel dx="799" dy="297" grid="1" gridSize="10" guides="1" tooltips="1" connect="1" arrows="1" fold="1" page="1" pageScale="1" pageWidth="3300" pageHeight="4681" math="0" shadow="0">
            <root>
                <mxCell id="0"/>
                <mxCell id="1" parent="0"/>
                <mxCell id="4" value="" style="rounded=0;whiteSpace=wrap;html=1;fillColor=#647687;fontColor=#ffffff;strokeColor=#314354;" parent="1" vertex="1">
                    <mxGeometry x="1877.5" y="671" width="30" height="159" as="geometry"/>
                </mxCell>
                <mxCell id="5" value="" style="rounded=0;whiteSpace=wrap;html=1;fillColor=#000000;" parent="1" vertex="1">
                    <mxGeometry x="1887.5" y="680" width="10" height="10" as="geometry"/>
                </mxCell>
                <mxCell id="6" value="" style="rounded=0;whiteSpace=wrap;html=1;fillColor=#fff2cc;strokeColor=#d6b656;" parent="1" vertex="1">
                    <mxGeometry x="1877.5" y="661" width="30" height="10" as="geometry"/>
                </mxCell>
                <mxCell id="3" value="" style="sketch=0;shadow=0;dashed=0;html=1;strokeColor=none;labelPosition=center;verticalLabelPosition=bottom;verticalAlign=top;outlineConnect=0;align=center;shape=mxgraph.office.databases.database;fillColor=#7FBA42;" parent="1" vertex="1">
                    <mxGeometry x="1830" y="761" width="125" height="139" as="geometry"/>
                </mxCell>
                <mxCell id="10" value="" style="rounded=0;whiteSpace=wrap;html=1;fillColor=#000000;" parent="1" vertex="1">
                    <mxGeometry x="1830" y="500" width="110" height="60" as="geometry"/>
                </mxCell>
                <mxCell id="12" value="" style="rounded=0;whiteSpace=wrap;html=1;fillColor=#f5f5f5;fontColor=#333333;strokeColor=#666666;" parent="1" vertex="1">
                    <mxGeometry x="1830" y="520" width="10" height="20" as="geometry"/>
                </mxCell>
                <mxCell id="13" value="" style="rounded=0;whiteSpace=wrap;html=1;fillColor=#eeeeee;strokeColor=#36393d;" parent="1" vertex="1">
                    <mxGeometry x="1930" y="510" width="10" height="40" as="geometry"/>
                </mxCell>
                <mxCell id="14" value="" style="rounded=0;whiteSpace=wrap;html=1;fillColor=#bac8d3;strokeColor=#23445d;" parent="1" vertex="1">
                    <mxGeometry x="1880" y="510" width="50" height="40" as="geometry"/>
                </mxCell>
                <mxCell id="15" value="" style="endArrow=none;html=1;entryX=0.467;entryY=0.985;entryDx=0;entryDy=0;entryPerimeter=0;startArrow=classic;startFill=1;endFill=0;strokeColor=#FF3333;" parent="1" target="10" edge="1">
                    <mxGeometry width="50" height="50" relative="1" as="geometry">
                        <mxPoint x="1880" y="660" as="sourcePoint"/>
                        <mxPoint x="1840" y="600" as="targetPoint"/>
                    </mxGeometry>
                </mxCell>
                <mxCell id="16" value="" style="endArrow=none;html=1;entryX=0.467;entryY=0.985;entryDx=0;entryDy=0;entryPerimeter=0;startArrow=classic;startFill=1;endFill=0;strokeColor=#000000;" parent="1" edge="1">
                    <mxGeometry width="50" height="50" relative="1" as="geometry">
                        <mxPoint x="1904.31" y="660.9" as="sourcePoint"/>
                        <mxPoint x="1905.6799999999998" y="560" as="targetPoint"/>
                    </mxGeometry>
                </mxCell>
                <mxCell id="17" value="" style="endArrow=classic;html=1;entryX=0.4;entryY=0.5;entryDx=0;entryDy=0;entryPerimeter=0;startArrow=none;startFill=0;endFill=1;strokeColor=#FF9933;" parent="1" target="14" edge="1">
                    <mxGeometry width="50" height="50" relative="1" as="geometry">
                        <mxPoint x="1891.81" y="661" as="sourcePoint"/>
                        <mxPoint x="1893.1799999999998" y="560.0999999999999" as="targetPoint"/>
                    </mxGeometry>
                </mxCell>
                <mxCell id="19" style="edgeStyle=none;html=1;strokeColor=#FF9933;startArrow=none;startFill=0;endArrow=classic;endFill=1;" parent="1" source="18" edge="1">
                    <mxGeometry relative="1" as="geometry">
                        <mxPoint x="1890" y="595.0000000000001" as="targetPoint"/>
                    </mxGeometry>
                </mxCell>
                <mxCell id="18" value="0v - 3.3V" style="text;html=1;strokeColor=none;fillColor=none;align=center;verticalAlign=middle;whiteSpace=wrap;rounded=0;" parent="1" vertex="1">
                    <mxGeometry x="1930" y="580" width="60" height="30" as="geometry"/>
                </mxCell>
                <mxCell id="20" value="0V - 0%" style="text;html=1;strokeColor=none;fillColor=none;align=center;verticalAlign=middle;whiteSpace=wrap;rounded=0;" parent="1" vertex="1">
                    <mxGeometry x="1940" y="620" width="60" height="30" as="geometry"/>
                </mxCell>
                <mxCell id="21" value="3.3V - 100%" style="text;html=1;strokeColor=none;fillColor=none;align=center;verticalAlign=middle;whiteSpace=wrap;rounded=0;" parent="1" vertex="1">
                    <mxGeometry x="1930" y="660" width="80" height="30" as="geometry"/>
                </mxCell>
                <mxCell id="22" value="1.8V - 50%" style="text;html=1;strokeColor=none;fillColor=none;align=center;verticalAlign=middle;whiteSpace=wrap;rounded=0;" parent="1" vertex="1">
                    <mxGeometry x="1930" y="641" width="80" height="30" as="geometry"/>
                </mxCell>
                <mxCell id="25" style="edgeStyle=none;html=1;strokeColor=#000000;startArrow=none;startFill=0;endArrow=classic;endFill=1;" parent="1" source="23" target="24" edge="1">
                    <mxGeometry relative="1" as="geometry"/>
                </mxCell>
                <mxCell id="26" style="edgeStyle=none;html=1;entryX=0;entryY=0.5;entryDx=0;entryDy=0;strokeColor=#B3B3B3;startArrow=none;startFill=0;endArrow=classic;endFill=1;" parent="1" source="23" target="12" edge="1">
                    <mxGeometry relative="1" as="geometry"/>
                </mxCell>
                <mxCell id="23" value="" style="rounded=0;whiteSpace=wrap;html=1;fillColor=#000000;fontColor=#333333;strokeColor=#666666;" parent="1" vertex="1">
                    <mxGeometry x="1890" y="520" width="20" height="10" as="geometry"/>
                </mxCell>
                <mxCell id="24" value="" style="sketch=0;pointerEvents=1;shadow=0;dashed=0;html=1;strokeColor=none;fillColor=#434445;aspect=fixed;labelPosition=center;verticalLabelPosition=bottom;verticalAlign=top;align=center;outlineConnect=0;shape=mxgraph.vvd.wi_fi;" parent="1" vertex="1">
                    <mxGeometry x="1950" y="520" width="20" height="20" as="geometry"/>
                </mxCell>
                <mxCell id="28" style="edgeStyle=none;html=1;entryX=-0.121;entryY=0.478;entryDx=0;entryDy=0;entryPerimeter=0;strokeColor=#B3B3B3;startArrow=none;startFill=0;endArrow=classic;endFill=1;" parent="1" source="27" target="12" edge="1">
                    <mxGeometry relative="1" as="geometry"/>
                </mxCell>
                <mxCell id="27" value="" style="verticalLabelPosition=bottom;html=1;verticalAlign=top;align=center;strokeColor=none;fillColor=#00BEF2;shape=mxgraph.azure.laptop;pointerEvents=1;" parent="1" vertex="1">
                    <mxGeometry x="1580" y="497.5" width="100" height="65" as="geometry"/>
                </mxCell>
                <mxCell id="29" value="C/C++" style="text;html=1;strokeColor=none;fillColor=none;align=center;verticalAlign=middle;whiteSpace=wrap;rounded=0;" parent="1" vertex="1">
                    <mxGeometry x="1600" y="510" width="60" height="30" as="geometry"/>
                </mxCell>
                <mxCell id="32" style="edgeStyle=none;html=1;strokeColor=#B3B3B3;startArrow=none;startFill=0;endArrow=classic;endFill=1;" parent="1" source="30" target="31" edge="1">
                    <mxGeometry relative="1" as="geometry"/>
                </mxCell>
                <mxCell id="30" value="Code" style="text;html=1;strokeColor=none;fillColor=none;align=center;verticalAlign=middle;whiteSpace=wrap;rounded=0;" parent="1" vertex="1">
                    <mxGeometry x="1510" y="590" width="60" height="30" as="geometry"/>
                </mxCell>
                <mxCell id="31" value="Run" style="text;html=1;strokeColor=none;fillColor=none;align=center;verticalAlign=middle;whiteSpace=wrap;rounded=0;" parent="1" vertex="1">
                    <mxGeometry x="1610" y="590" width="60" height="30" as="geometry"/>
                </mxCell>
                <mxCell id="35" style="edgeStyle=none;html=1;strokeColor=#B3B3B3;startArrow=none;startFill=0;endArrow=classic;endFill=1;" parent="1" source="33" target="34" edge="1">
                    <mxGeometry relative="1" as="geometry"/>
                </mxCell>
                <mxCell id="33" value="Code" style="text;html=1;strokeColor=none;fillColor=none;align=center;verticalAlign=middle;whiteSpace=wrap;rounded=0;" parent="1" vertex="1">
                    <mxGeometry x="1420" y="641" width="60" height="30" as="geometry"/>
                </mxCell>
                <mxCell id="37" style="edgeStyle=none;html=1;strokeColor=#B3B3B3;startArrow=none;startFill=0;endArrow=classic;endFill=1;" parent="1" source="34" target="36" edge="1">
                    <mxGeometry relative="1" as="geometry"/>
                </mxCell>
                <mxCell id="34" value="Build" style="text;html=1;strokeColor=none;fillColor=none;align=center;verticalAlign=middle;whiteSpace=wrap;rounded=0;" parent="1" vertex="1">
                    <mxGeometry x="1510" y="641" width="60" height="30" as="geometry"/>
                </mxCell>
                <mxCell id="39" style="edgeStyle=none;html=1;strokeColor=#B3B3B3;startArrow=none;startFill=0;endArrow=classic;endFill=1;" parent="1" source="36" target="38" edge="1">
                    <mxGeometry relative="1" as="geometry"/>
                </mxCell>
                <mxCell id="36" value="Flash" style="text;html=1;strokeColor=none;fillColor=none;align=center;verticalAlign=middle;whiteSpace=wrap;rounded=0;" parent="1" vertex="1">
                    <mxGeometry x="1600" y="641" width="60" height="30" as="geometry"/>
                </mxCell>
                <mxCell id="38" value="Runs" style="text;html=1;strokeColor=none;fillColor=none;align=center;verticalAlign=middle;whiteSpace=wrap;rounded=0;" parent="1" vertex="1">
                    <mxGeometry x="1690" y="641" width="60" height="30" as="geometry"/>
                </mxCell>
                <mxCell id="48" style="edgeStyle=none;html=1;entryX=0.5;entryY=0;entryDx=0;entryDy=0;" edge="1" parent="1" source="40" target="41">
                    <mxGeometry relative="1" as="geometry"/>
                </mxCell>
                <mxCell id="40" value="Power On / Reset" style="shape=process;whiteSpace=wrap;html=1;backgroundOutline=1;" vertex="1" parent="1">
                    <mxGeometry x="1000" y="520" width="200" height="30" as="geometry"/>
                </mxCell>
                <mxCell id="44" style="edgeStyle=none;html=1;entryX=-0.002;entryY=0.386;entryDx=0;entryDy=0;entryPerimeter=0;" edge="1" parent="1" source="41" target="42">
                    <mxGeometry relative="1" as="geometry"/>
                </mxCell>
                <mxCell id="50" style="edgeStyle=none;html=1;entryX=0.5;entryY=0;entryDx=0;entryDy=0;" edge="1" parent="1" source="41" target="49">
                    <mxGeometry relative="1" as="geometry"/>
                </mxCell>
                <mxCell id="41" value="Setup()" style="shape=process;whiteSpace=wrap;html=1;backgroundOutline=1;" vertex="1" parent="1">
                    <mxGeometry x="1000" y="570" width="200" height="30" as="geometry"/>
                </mxCell>
                <mxCell id="46" style="edgeStyle=none;html=1;entryX=0.5;entryY=0;entryDx=0;entryDy=0;" edge="1" parent="1" source="42" target="43">
                    <mxGeometry relative="1" as="geometry"/>
                </mxCell>
                <mxCell id="42" value="Wifi Connect" style="shape=process;whiteSpace=wrap;html=1;backgroundOutline=1;" vertex="1" parent="1">
                    <mxGeometry x="1250" y="545" width="200" height="30" as="geometry"/>
                </mxCell>
                <mxCell id="47" style="edgeStyle=none;html=1;entryX=1;entryY=0.5;entryDx=0;entryDy=0;" edge="1" parent="1" source="43" target="41">
                    <mxGeometry relative="1" as="geometry"/>
                </mxCell>
                <mxCell id="43" value="Set Sleep Timer" style="shape=process;whiteSpace=wrap;html=1;backgroundOutline=1;" vertex="1" parent="1">
                    <mxGeometry x="1250" y="595" width="200" height="30" as="geometry"/>
                </mxCell>
                <mxCell id="49" value="Loop()" style="shape=process;whiteSpace=wrap;html=1;backgroundOutline=1;" vertex="1" parent="1">
                    <mxGeometry x="1000" y="670" width="200" height="30" as="geometry"/>
                </mxCell>
            </root>
        </mxGraphModel>
    </diagram>
</mxfile>